<?xml version="1.0" encoding="UTF-8" ?>
<!DOCTYPE svg PUBLIC "-//W3C//DTD SVG 1.1//EN" "http://www.w3.org/Graphics/SVG/1.1/DTD/svg11.dtd">
<svg width="32pt" height="27pt" viewBox="0 0 32 27" version="1.1" xmlns="http://www.w3.org/2000/svg">
<g id="#506d9fff">
<path fill="#506d9f" opacity="1.00" d=" M 6.50 0.00 L 14.55 0.00 C 12.80 2.38 11.11 4.82 9.23 7.11 C 8.33 4.74 7.49 2.34 6.50 0.00 Z" />
<path fill="#506d9f" opacity="1.00" d=" M 17.51 0.00 L 25.58 0.00 C 24.60 2.37 23.76 4.81 22.84 7.21 C 20.94 4.90 19.19 2.48 17.51 0.00 Z" />
<path fill="#506d9f" opacity="1.00" d=" M 10.56 8.10 C 11.95 5.24 13.82 2.66 16.00 0.35 C 18.19 2.65 20.06 5.23 21.43 8.09 C 17.82 8.40 14.18 8.40 10.56 8.10 Z" />
<path fill="#506d9f" opacity="1.00" d=" M 1.03 8.18 C 2.40 5.87 3.70 3.41 5.90 1.76 C 6.84 3.84 7.58 6.00 8.30 8.16 C 5.88 8.26 3.45 8.26 1.03 8.18 Z" />
<path fill="#506d9f" opacity="1.00" d=" M 26.18 1.68 C 28.34 3.41 29.79 5.79 31.07 8.21 C 28.68 8.27 26.30 8.28 23.92 8.21 C 24.60 6.01 25.35 3.83 26.18 1.68 Z" />
<path fill="#506d9f" opacity="1.00" d=" M 0.89 9.29 C 3.47 9.26 6.05 9.28 8.63 9.41 C 10.40 13.98 12.09 18.61 13.29 23.37 C 8.79 19.04 4.38 14.48 0.89 9.29 Z" />
<path fill="#506d9f" opacity="1.00" d=" M 10.09 9.36 C 14.05 9.28 18.01 9.28 21.98 9.35 C 20.48 15.30 18.40 21.11 16.05 26.77 C 13.84 21.05 11.90 15.22 10.09 9.36 Z" />
<path fill="#506d9f" opacity="1.00" d=" M 23.23 9.97 C 25.89 9.52 28.60 9.34 31.30 9.44 C 27.62 14.47 23.44 19.22 18.81 23.40 C 20.00 18.83 21.73 14.44 23.23 9.97 Z" />
</g>
</svg>
