<?xml version="1.0" encoding="UTF-8" ?>
<!DOCTYPE svg PUBLIC "-//W3C//DTD SVG 1.1//EN" "http://www.w3.org/Graphics/SVG/1.1/DTD/svg11.dtd">
<svg width="30pt" height="24pt" viewBox="0 0 30 24" version="1.1" xmlns="http://www.w3.org/2000/svg">
<g id="#506d9fff">
<path fill="#506d9f" opacity="1.00" d=" M 14.33 0.00 L 15.74 0.00 C 19.89 4.13 25.26 6.62 30.00 9.96 L 30.00 11.22 C 29.60 11.16 28.80 11.04 28.39 10.98 C 23.77 8.42 19.63 5.07 15.09 2.36 C 9.96 5.26 5.63 9.61 0.00 11.55 L 0.00 10.24 C 4.69 6.72 10.21 4.26 14.33 0.00 Z" />
<path fill="#506d9f" opacity="1.00" d=" M 4.04 11.35 C 7.54 8.58 11.40 6.28 15.08 3.76 C 19.02 6.25 22.86 8.89 26.61 11.64 C 26.47 15.76 26.48 19.88 26.51 24.00 L 16.98 24.00 C 17.01 21.49 17.03 18.98 17.02 16.47 C 15.58 16.49 14.13 16.52 12.69 16.55 C 12.72 19.03 12.75 21.52 12.77 24.00 L 3.75 24.00 C 3.87 19.79 3.34 15.52 4.04 11.35 Z" />
</g>
</svg>
