<?xml version="1.0" encoding="UTF-8" ?>
<!DOCTYPE svg PUBLIC "-//W3C//DTD SVG 1.1//EN" "http://www.w3.org/Graphics/SVG/1.1/DTD/svg11.dtd">
<svg width="25pt" height="36pt" viewBox="0 0 25 36" version="1.1" xmlns="http://www.w3.org/2000/svg">
<g id="#47618de3">
<path fill="#47618d" opacity="0.89" d=" M 10.42 1.30 C 15.57 -0.01 21.29 2.83 23.49 7.64 C 26.05 12.69 24.27 19.43 19.46 22.46 C 13.60 26.56 4.34 23.49 2.23 16.61 C -0.14 10.37 3.83 2.68 10.42 1.30 M 11.47 3.58 C 4.04 4.52 1.21 15.31 7.23 19.75 C 12.30 24.62 21.69 20.85 22.24 13.93 C 23.36 7.95 17.32 2.37 11.47 3.58 Z" />
<path fill="#47618d" opacity="0.89" d=" M 0.72 35.96 C 1.47 31.47 3.58 27.24 7.14 24.32 C 6.46 28.83 4.51 33.23 0.72 35.96 Z" />
</g>
</svg>
